<?xml version="1.0" encoding="UTF-8"?>
<!DOCTYPE svg PUBLIC "-//W3C//DTD SVG 1.1//EN" "http://www.w3.org/Graphics/SVG/1.1/DTD/svg11.dtd">
<!-- Creator: CorelDRAW X6 -->
<svg xmlns="http://www.w3.org/2000/svg" xml:space="preserve" width="8.33333in" height="8.33333in" version="1.1" style="shape-rendering:geometricPrecision; text-rendering:geometricPrecision; image-rendering:optimizeQuality; fill-rule:evenodd; clip-rule:evenodd"
viewBox="0 0 8333 8333"
 xmlns:xlink="http://www.w3.org/1999/xlink">
 <defs>
  <style type="text/css">
   <![CDATA[
    .str0 {stroke:black;stroke-width:13.8898}
    .str7 {stroke:#F2FF5E;stroke-width:13.8898}
    .str1 {stroke:#F7FF5E;stroke-width:13.8898}
    .str6 {stroke:#F9FF9E;stroke-width:13.8898}
    .str4 {stroke:#FDFF1F;stroke-width:13.8898}
    .str5 {stroke:#FDFF3F;stroke-width:13.8898}
    .str8 {stroke:#FDFF5E;stroke-width:13.8898}
    .str3 {stroke:#FFF93F;stroke-width:13.8898}
    .str2 {stroke:#26BF00;stroke-width:125}
    .fil12 {fill:none;fill-rule:nonzero}
    .fil0 {fill:black;fill-rule:nonzero}
    .fil11 {fill:#00FFA3;fill-rule:nonzero}
    .fil9 {fill:aqua;fill-rule:nonzero}
    .fil8 {fill:#666666;fill-rule:nonzero}
    .fil5 {fill:#CCCCCC;fill-rule:nonzero}
    .fil13 {fill:#DF9700;fill-rule:nonzero}
    .fil16 {fill:#EFFF3F;fill-rule:nonzero}
    .fil15 {fill:#F4FF7E;fill-rule:nonzero}
    .fil6 {fill:#F6FF3F;fill-rule:nonzero}
    .fil10 {fill:#F7FF5E;fill-rule:nonzero}
    .fil19 {fill:#F9FF7E;fill-rule:nonzero}
    .fil18 {fill:#FDFF1F;fill-rule:nonzero}
    .fil4 {fill:#FDFF3F;fill-rule:nonzero}
    .fil17 {fill:#FDFF5E;fill-rule:nonzero}
    .fil14 {fill:#FDFF7E;fill-rule:nonzero}
    .fil1 {fill:#FFD87E;fill-rule:nonzero}
    .fil3 {fill:#FFF95E;fill-rule:nonzero}
    .fil7 {fill:url(#id0);fill-rule:nonzero}
    .fil2 {fill:url(#id1);fill-rule:nonzero}
   ]]>
  </style>
  <linearGradient id="id0" gradientUnits="userSpaceOnUse" x1="6184.54" y1="4005.29" x2="8005.69" y2="4005.29">
   <stop offset="0" style="stop-color:red"/>
   <stop offset="0.0509804" style="stop-color:red"/>
   <stop offset="0.529412" style="stop-color:#FF7F7F"/>
   <stop offset="0.639216" style="stop-color:white"/>
   <stop offset="0.74902" style="stop-color:#FF8080"/>
   <stop offset="1" style="stop-color:red"/>
  </linearGradient>
  <linearGradient id="id1" gradientUnits="userSpaceOnUse" x1="1424.36" y1="6546.29" x2="4081.21" y2="6758.65">
   <stop offset="0" style="stop-color:#E60700"/>
   <stop offset="0.788235" style="stop-color:#F2742D"/>
   <stop offset="1" style="stop-color:#FFE15B"/>
  </linearGradient>
 </defs>
 <g id="__x0023_Layer_x0020_1">
  <metadata id="CorelCorpID_0Corel-Layer"/>
  <polygon class="fil0 str0" points="8333,8333 0,8333 0,0 8333,0 "/>
  <path class="fil1 str0" d="M7986 1044c0,471 -423,852 -944,852 -521,0 -944,-381 -944,-852 0,-471 423,-852 944,-852 521,0 944,381 944,852z"/>
  <polygon class="fil2 str0" points="2066,6927 3219,6353 1429,7509 3543,6404 2264,7266 4077,6362 3971,6181 3944,6134 3880,6024 3839,5953 3747,5796 "/>
  <polygon class="fil3 str0" points="4323,5745 4007,5319 2740,6273 3945,5644 4226,5820 "/>
  <polygon class="fil4 str0" points="4555,6273 4711,6754 3314,7345 4431,6643 4447,6317 "/>
  <path class="fil5 str0" d="M7881 3387c213,315 -1527,1866 -2671,2641 -1145,775 -1261,481 -1474,166 -213,-315 -520,-480 624,-1255 1145,-775 3308,-1867 3521,-1551z"/>
  <polygon class="fil6 str0" points="3858,5745 3543,5319 2275,6273 3481,5644 3761,5820 "/>
  <polygon class="fil6 str0" points="4207,6075 4363,6556 2966,7147 4083,6445 4099,6119 "/>
  <path class="fil7 str0" d="M7881 3387c-121,-178 -865,94 -1697,504l580 912c700,-626 1241,-1231 1117,-1415z"/>
  <path class="fil8 str0" d="M6344 4815c0,297 -251,539 -560,539 -309,0 -560,-241 -560,-539 0,-297 251,-539 560,-539 309,0 560,241 560,539z"/>
  <path class="fil9 str0" d="M6146 4815c0,193 -162,349 -362,349 -200,0 -362,-156 -362,-349 0,-193 162,-349 362,-349 200,0 362,156 362,349z"/>
  <polygon class="fil10 str1" points="538,4591 786,4599 586,4747 655,4986 453,4841 247,4980 322,4743 126,4590 375,4589 459,4355 "/>
  <path class="fil11 str0" d="M3531 1897c0,513 -467,928 -1043,928 -576,0 -1043,-416 -1043,-928 0,-513 467,-928 1043,-928 576,0 1043,416 1043,928z"/>
  <path class="fil12 str2" d="M1446 2053c-113,-19 -480,141 -465,267 292,127 684,106 1001,88 350,-20 658,-102 981,-224 261,-98 536,-138 765,-315 62,-48 196,-185 114,-270 -47,-49 -285,-13 -355,-13"/>
  <path class="fil13" d="M7085 1755l619 -104c75,-66 137,-144 184,-230l-126 10 0 13 -98 -5 -67 5 0 -9 -747 -41 747 -80 0 -17 92 7 69 -7 0 13 173 14c34,-88 53,-182 53,-280 0,-68 -9,-134 -26,-198l-868 6 820 -138c-143,-307 -479,-522 -871,-522 -332,0 -624,155 -792,388l817 89 -919 100c-32,86 -50,178 -50,274 0,155 46,300 126,425l846 84 -694 95c171,153 406,248 666,248 195,0 376,-53 526,-145l-483 3z"/>
  <polygon class="fil14 str3" points="4301,3354 4613,3514 4280,3583 4241,3931 4060,3624 3724,3679 3945,3420 3776,3106 4094,3253 4326,3004 "/>
  <polygon class="fil15 str4" points="6246,3251 6466,3366 6222,3412 6181,3658 6061,3440 5815,3477 5985,3295 5874,3073 6099,3178 6277,3004 "/>
  <polygon class="fil16 str1" points="7193,6543 7321,6681 7126,6647 7021,6803 6999,6622 6806,6581 6987,6503 6974,6322 7107,6455 7291,6384 "/>
  <polygon class="fil17 str5" points="665,7806 847,7796 690,7924 724,8104 586,8006 425,8128 496,7939 362,7834 545,7816 624,7629 "/>
  <polygon class="fil18 str6" points="2338,600 2529,597 2369,722 2412,908 2263,801 2099,920 2166,729 2022,616 2213,605 2288,417 "/>
  <polygon class="fil3 str7" points="6627,7451 6964,7319 6782,7632 7012,7912 6657,7835 6462,8140 6426,7780 6075,7688 6407,7543 6386,7181 "/>
  <polygon class="fil19 str8" points="5554,871 5693,957 5529,975 5488,1134 5421,985 5257,997 5380,887 5319,736 5462,816 5589,711 "/>
  <polygon class="fil19 str8" points="2376,3934 2469,3991 2358,4004 2330,4110 2285,4011 2174,4019 2258,3945 2217,3843 2313,3897 2400,3826 "/>
  <polygon class="fil19 str8" points="4223,4225 4317,4283 4206,4296 4177,4402 4133,4302 4021,4311 4105,4236 4064,4135 4160,4189 4247,4118 "/>
  <polygon class="fil19 str8" points="7652,2529 7745,2586 7634,2599 7606,2705 7561,2606 7450,2614 7533,2540 7493,2438 7589,2492 7676,2421 "/>
  <polygon class="fil19 str8" points="1401,5688 1495,5746 1384,5759 1355,5865 1311,5765 1199,5774 1283,5699 1242,5598 1338,5652 1425,5581 "/>
  <polygon class="fil19 str8" points="510,2245 604,2302 493,2315 464,2421 420,2322 309,2330 392,2256 352,2154 448,2208 534,2137 "/>
  <polygon class="fil19 str8" points="4377,524 4470,582 4359,594 4331,701 4286,601 4175,609 4259,535 4218,434 4314,487 4401,417 "/>
  <polygon class="fil19 str8" points="5163,7492 5257,7550 5146,7563 5117,7669 5073,7569 4961,7578 5045,7503 5004,7402 5101,7456 5187,7385 "/>
 </g>
</svg>
